<svg xmlns="http://www.w3.org/2000/svg" viewBox="0 0 168 168" width="168" height="168">
  <circle cx="84" cy="84" r="84" fill="#1ED760"/>
  <path d="M120.6 75.6c-25.7-15.3-68.1-16.7-92.6-9.2-3.9 1.2-8.1-1-9.3-5s1-8.1 5-9.3c28.1-8.6 74.8-6.9 104.4 10.7 3.5 2.1 4.7 6.7 2.6 10.2-2.1 3.5-6.7 4.6-10.1 2.6zm-1.1 23c-1.8 2.9-5.5 3.8-8.4 2-21.5-13.2-54.2-17-79.6-9.3-3.2 1-6.6-.9-7.6-4.1s.9-6.6 4.1-7.6c29.1-8.8 65.2-4.5 89.8 10.6 2.9 1.8 3.8 5.5 2 8.4h-.3zm-9.6 22.1c-1.4 2.3-4.4 3.1-6.8 1.6-18.7-11.4-42.3-14-70-7.7-2.7.6-5.3-.9-6-3.6-.6-2.7.9-5.3 3.6-6 30.3-6.9 56.4-3.9 77.5 8.9 2.3 1.4 3.1 4.5 1.7 6.8z" fill="#050508"/>
</svg>
